<mxfile host="app.diagrams.net" modified="2023-04-24T08:20:21.315Z" agent="5.0 (Windows NT 10.0; Win64; x64) AppleWebKit/537.36 (KHTML, like Gecko) Chrome/112.0.0.0 Safari/537.36 Edg/112.0.1722.48" etag="-ehoAyzBZ0ZAu_i05Z8X" version="20.4.1" type="github">
  <diagram id="q7R7ZpNG9PPQRxhQZXBu" name="第 1 页">
    <mxGraphModel dx="981" dy="547" grid="1" gridSize="10" guides="1" tooltips="1" connect="1" arrows="1" fold="1" page="1" pageScale="1" pageWidth="850" pageHeight="1100" math="0" shadow="0">
      <root>
        <mxCell id="0" />
        <mxCell id="1" parent="0" />
        <mxCell id="eVWi-_8oN8htNleErUdb-2" value="" style="edgeStyle=orthogonalEdgeStyle;rounded=0;orthogonalLoop=1;jettySize=auto;html=1;" edge="1" parent="1" source="ki6q88_51caTdd5Ug6VP-1" target="ki6q88_51caTdd5Ug6VP-2">
          <mxGeometry relative="1" as="geometry" />
        </mxCell>
        <mxCell id="ki6q88_51caTdd5Ug6VP-1" value="DCM_MainFunction - 5ms" style="rounded=1;whiteSpace=wrap;html=1;" parent="1" vertex="1">
          <mxGeometry x="170" y="640" width="120" height="60" as="geometry" />
        </mxCell>
        <mxCell id="eVWi-_8oN8htNleErUdb-6" value="" style="edgeStyle=orthogonalEdgeStyle;rounded=0;orthogonalLoop=1;jettySize=auto;html=1;" edge="1" parent="1" source="ki6q88_51caTdd5Ug6VP-2" target="eVWi-_8oN8htNleErUdb-4">
          <mxGeometry relative="1" as="geometry" />
        </mxCell>
        <mxCell id="ki6q88_51caTdd5Ug6VP-2" value="BswM_MainFunction(5ms)&lt;br&gt;BSWM Rule - ResetRequest&lt;br&gt;" style="rounded=1;whiteSpace=wrap;html=1;" parent="1" vertex="1">
          <mxGeometry x="157.5" y="500" width="145" height="80" as="geometry" />
        </mxCell>
        <mxCell id="eVWi-_8oN8htNleErUdb-7" value="" style="edgeStyle=orthogonalEdgeStyle;rounded=0;orthogonalLoop=1;jettySize=auto;html=1;" edge="1" parent="1" source="ki6q88_51caTdd5Ug6VP-3" target="eVWi-_8oN8htNleErUdb-5">
          <mxGeometry relative="1" as="geometry" />
        </mxCell>
        <mxCell id="ki6q88_51caTdd5Ug6VP-3" value="BswM_MainFunction(5ms)&lt;br&gt;BSWM Rule - ResetExecute" style="rounded=1;whiteSpace=wrap;html=1;" parent="1" vertex="1">
          <mxGeometry x="533" y="400" width="165" height="80" as="geometry" />
        </mxCell>
        <mxCell id="eVWi-_8oN8htNleErUdb-1" value="" style="edgeStyle=orthogonalEdgeStyle;rounded=0;orthogonalLoop=1;jettySize=auto;html=1;" edge="1" parent="1" source="ki6q88_51caTdd5Ug6VP-4" target="ki6q88_51caTdd5Ug6VP-1">
          <mxGeometry relative="1" as="geometry" />
        </mxCell>
        <mxCell id="ki6q88_51caTdd5Ug6VP-4" value="CAN (5ms)" style="rounded=1;whiteSpace=wrap;html=1;" parent="1" vertex="1">
          <mxGeometry x="170" y="740" width="120" height="60" as="geometry" />
        </mxCell>
        <mxCell id="eVWi-_8oN8htNleErUdb-4" value="SysModMgr_ResetRequest" style="rounded=1;whiteSpace=wrap;html=1;" vertex="1" parent="1">
          <mxGeometry x="145" y="410" width="170" height="70" as="geometry" />
        </mxCell>
        <mxCell id="eVWi-_8oN8htNleErUdb-5" value="ResetDrvr_ForceReset" style="rounded=1;whiteSpace=wrap;html=1;" vertex="1" parent="1">
          <mxGeometry x="530" y="310" width="170" height="70" as="geometry" />
        </mxCell>
      </root>
    </mxGraphModel>
  </diagram>
</mxfile>
